<svg width="20" height="17" viewBox="0 0 20 17" fill="none" xmlns="http://www.w3.org/2000/svg">
<path fill-rule="evenodd" clip-rule="evenodd" d="M3.44156 5.82734C1.37318 6.90933 -8e-05 8.79094 -8e-05 10.9285C-8e-05 12.0389 0.37422 13.1202 1.08514 14.069L0.43574 16.0686C0.38934 16.2125 0.42876 16.3697 0.53868 16.4765C0.6485 16.583 0.81048 16.6216 0.95854 16.5763L3.1912 15.8926C4.4628 16.6177 5.94806 16.9999 7.49988 16.9999C10.5508 16.9999 13.1741 15.5143 14.3437 13.392C15.07 13.187 12.6965 13.7176 13.1978 13.6403C12.0299 15.1651 9.91772 16.1903 7.49988 16.1903C6.03542 16.1903 4.64018 15.8159 3.46512 15.1079C3.39838 15.0674 3.3223 15.0469 3.24538 15.0469C3.2035 15.0469 3.16104 15.0529 3.12008 15.0656L1.47136 15.5705L1.94456 14.1135C1.98554 13.9864 1.9595 13.8474 1.87498 13.7423C1.1934 12.8969 0.83322 11.9238 0.83322 10.9285C0.83322 9.26969 1.81274 7.78962 3.3365 6.82458C3.3365 6.84355 3.31488 6.87584 3.3333 6.8808C3.44156 6.91042 3.4852 6.16979 3.44156 5.82734ZM14.3437 13.392C15.07 13.187 15.7648 12.902 16.409 12.5322L19.0412 13.3382C19.1891 13.3839 19.3513 13.3454 19.4612 13.2384C19.5712 13.1318 19.6106 12.9746 19.5641 12.8305L18.7898 10.4452C19.5823 9.36753 20 8.13962 20 6.8808C20 3.0865 16.2617 -8.5e-05 11.6666 -8.5e-05C7.50648 -8.5e-05 4.0588 2.53264 3.44156 5.82734C3.44156 6.90933 3.4655 5.45161 3.3365 6.82458C3.3365 6.84355 3.3333 6.86181 3.3333 6.8808C3.3333 10.6751 7.0715 13.7618 11.6666 13.7618C12.1854 13.7618 12.6965 13.7176 13.1978 13.6403M16.4799 11.705C16.3638 11.6694 16.2381 11.6853 16.1347 11.7471C14.8279 12.5355 13.2829 12.9523 11.6666 12.9523C7.53132 12.9523 4.1666 10.2285 4.1666 6.8808C4.1666 3.53304 7.53132 0.80954 11.6666 0.80954C15.802 0.80954 19.1665 3.53304 19.1665 6.8808C19.1665 8.02762 18.7621 9.14964 17.9971 10.1254C17.9154 10.2302 17.8904 10.3671 17.9312 10.4926L18.5287 12.3325L16.4799 11.705Z" fill="#F55661"/>
</svg>
