<svg width="21" height="21" viewBox="0 0 21 21" fill="none" xmlns="http://www.w3.org/2000/svg">
<path fill-rule="evenodd" clip-rule="evenodd" d="M0.634115 11.0937H2.74511C2.93014 11.1121 3.09855 11.2085 3.20811 11.3587C3.42281 11.6408 3.55753 11.9756 3.59811 12.3277C3.66917 12.9411 3.92002 13.5197 4.31911 13.9907C4.6645 14.4004 5.16944 14.6415 5.70511 14.6527C6.2074 14.6438 6.68336 14.4264 7.01911 14.0527C7.41094 13.6176 7.67013 13.0794 7.76611 12.5017L8.51311 8.64975C8.55848 8.3112 8.70525 7.99431 8.93411 7.74075L8.98811 7.70175L9.25811 7.54775H9.33811C9.51692 7.54971 9.68452 7.63517 9.79111 7.77875C10.0198 8.06131 10.1591 8.40564 10.1911 8.76775L11.5281 17.9317C11.5921 18.5458 11.8395 19.1263 12.2381 19.5977C12.5765 20.0157 13.0854 20.2585 13.6231 20.2585C14.1608 20.2585 14.6698 20.0157 15.0081 19.5977C15.407 19.1263 15.6551 18.5459 15.7201 17.9317L16.5451 12.3227C16.5846 11.9768 16.7154 11.6475 16.9241 11.3687C17.0348 11.2133 17.2065 11.1126 17.3961 11.0917H19.3701C19.6274 11.0876 19.8572 10.9299 19.9538 10.6914C20.0504 10.4529 19.995 10.1798 19.8131 9.99775C19.6978 9.87764 19.5386 9.80944 19.3721 9.80875H17.4001C16.836 9.83125 16.3097 10.0981 15.9581 10.5397C15.5975 11.0042 15.3676 11.5566 15.2921 12.1397L14.4801 17.7397C14.4473 18.1017 14.3081 18.4458 14.0801 18.7287C13.974 18.874 13.8078 18.9634 13.6281 18.9717C13.4548 18.9604 13.2944 18.8765 13.1861 18.7407C12.9525 18.4558 12.8094 18.1076 12.7751 17.7407L11.4521 8.57675C11.3809 7.96269 11.1297 7.3834 10.7301 6.91175C10.3805 6.5092 9.87714 6.27312 9.34411 6.26175C8.83876 6.27018 8.3586 6.48391 8.01411 6.85375C7.62814 7.28982 7.37425 7.82674 7.28211 8.40175L6.52811 12.2517C6.47899 12.5825 6.34071 12.8936 6.12811 13.1517L6.09411 13.1907L5.74511 13.3907L5.62911 13.3627C5.48048 13.333 5.34584 13.2549 5.24611 13.1407C5.02025 12.8545 4.87862 12.511 4.83711 12.1487C4.77256 11.5596 4.53999 11.0014 4.16711 10.5407C3.82368 10.097 3.29993 9.83004 2.73911 9.81275H0.634115C0.2827 9.8144 -0.000992539 10.1003 0.000114706 10.4517C-0.00312478 10.6216 0.062369 10.7856 0.181739 10.9064C0.301108 11.0273 0.464236 11.0949 0.634115 11.0937Z" fill="#4E545E"/>
<path fill-rule="evenodd" clip-rule="evenodd" d="M20.3581 9.03673H18.2211C18.0351 9.01937 17.8649 8.92467 17.7521 8.77573C17.5355 8.49882 17.3989 8.16783 17.3571 7.81873C17.2836 7.21127 17.0293 6.63989 16.6271 6.17873C16.2734 5.77344 15.765 5.5363 15.2271 5.52573C14.7213 5.53399 14.2408 5.74858 13.8971 6.11973C13.5018 6.54594 13.2388 7.07784 13.1401 7.65073L12.3841 11.4507C12.3385 11.7875 12.1897 12.1019 11.9581 12.3507L11.9031 12.3897L11.6301 12.5417H11.5461C11.3666 12.5399 11.1978 12.4559 11.0881 12.3137C10.8591 12.0364 10.7196 11.6961 10.6881 11.3377L9.33011 2.29173C9.26358 1.68357 9.0127 1.11028 8.61111 0.648735C8.26246 0.23726 7.75044 0 7.21111 0C6.67179 0 6.15977 0.23726 5.81111 0.648735C5.4088 1.11003 5.15721 1.68334 5.09011 2.29173L4.25511 7.82674C4.21454 8.16935 4.08184 8.49455 3.87111 8.76773C3.75747 8.92214 3.58384 9.0213 3.39311 9.04074H1.39311C1.0417 9.03963 0.755766 9.32332 0.754112 9.67474C0.754598 9.84276 0.822721 10.0035 0.943112 10.1207C1.06158 10.2395 1.22235 10.3064 1.39011 10.3067H3.39011C3.95756 10.2865 4.48911 10.024 4.85011 9.58574C5.21365 9.13131 5.44665 8.5865 5.52411 8.00974L6.34611 2.47973C6.37846 2.12193 6.51785 1.78217 6.74611 1.50473C6.85518 1.36024 7.02323 1.27218 7.20411 1.26473C7.37826 1.27556 7.54011 1.35812 7.65111 1.49273C7.88709 1.77245 8.03221 2.11744 8.06711 2.48173L9.40711 11.5217C9.48024 12.1304 9.73497 12.7029 10.1381 13.1647C10.4957 13.5633 11.0028 13.7954 11.5381 13.8057C12.0469 13.7987 12.5317 13.5888 12.8851 13.2227C13.2741 12.7954 13.5314 12.2648 13.6261 11.6947L14.3851 7.89473C14.4348 7.56866 14.5732 7.26251 14.7851 7.00973L14.8201 6.97174L15.1731 6.77173L15.2901 6.79974C15.4395 6.82873 15.5753 6.90561 15.6771 7.01873C15.9054 7.29903 16.0491 7.63866 16.0911 7.99774C16.1577 8.58138 16.3937 9.13274 16.7701 9.58373C17.1227 10.024 17.6513 10.2866 18.2151 10.3017H20.3521C20.5208 10.3025 20.6829 10.2363 20.8027 10.1176C20.9226 9.99887 20.9903 9.83741 20.9911 9.66873C20.9919 9.5007 20.9255 9.33933 20.8065 9.2206C20.6876 9.10187 20.5261 9.03566 20.3581 9.03673Z" fill="#F55661"/>
</svg>
