<svg width="20" height="18" viewBox="0 0 20 18" fill="none" xmlns="http://www.w3.org/2000/svg">
<path fill-rule="evenodd" clip-rule="evenodd" d="M0.83314 16.7725V1.22701C0.83314 1.00136 1.01996 0.818208 1.24996 0.818208H12.4999V-0.00018H1.24996C0.5606 -0.00018 -0.00016 0.550368 -0.00016 1.22701V16.7725C-0.00016 17.4493 0.5606 17.9997 1.24996 17.9997H17.0832C17.7725 17.9997 18.3332 17.4493 18.3332 16.7725V8.99995H17.4999V16.7725C17.4999 16.9983 17.3131 17.1816 17.0832 17.1816H1.24996C1.01996 17.1816 0.83314 16.9983 0.83314 16.7725ZM9.87786 13.38L19.7215 3.71518C19.8979 3.54229 19.9947 3.31249 19.9947 3.06808C19.9947 2.82353 19.8979 2.59366 19.7215 2.42084L17.5341 0.273114C17.3578 0.100026 17.1166 0.013482 16.875 0.013482C16.6332 0.013482 16.3919 0.100026 16.2158 0.273114L6.37196 9.93782C6.29384 10.0145 6.24994 10.1184 6.24994 10.2271V13.0908C6.24994 13.3169 6.4363 13.4998 6.66658 13.4998H9.58322C9.69386 13.4998 9.79966 13.4567 9.87786 13.38ZM9.4107 12.6817H7.08324V10.3965L9.4107 12.6817ZM7.6725 9.81806L9.99986 12.1032L17.5358 4.70428L15.2081 2.4192L7.6725 9.81806ZM16.9448 0.851634L19.1324 2.99921C19.171 3.0371 19.171 3.09884 19.1324 3.13659L18.1248 4.12555L15.7975 1.84068L16.8049 0.851634C16.8529 0.804474 16.8967 0.804474 16.9448 0.851634Z" fill="white"/>
</svg>
