<svg width="20" height="20" viewBox="0 0 20 20" fill="none" xmlns="http://www.w3.org/2000/svg">
<path fill-rule="evenodd" clip-rule="evenodd" d="M11.0149 7.07424L16.6667 1.42242V3.33322H17.4999V0.4167C17.4999 0.1866 17.3133 0 17.0833 0H14.1665V0.83334H16.0773L10.4257 6.48508C10.3084 6.60226 10.1541 6.66084 9.99994 6.66084C9.84574 6.66084 9.69146 6.60226 9.57412 6.48508L6.4316 3.3425C6.15182 3.06222 5.78404 2.92226 5.41634 2.92262C5.04882 2.92262 4.68132 3.06258 4.40162 3.3425L0.42214 7.32202L1.01132 7.91124L4.9908 3.93164C5.10824 3.81434 5.26242 3.75582 5.41662 3.75582C5.57072 3.75582 5.725 3.81434 5.84244 3.93164L8.98494 7.07424C9.26482 7.3543 9.63224 7.49426 9.99994 7.4941C10.3678 7.4939 10.7351 7.35386 11.0149 7.07424ZM0 19.1666V20.0001H20V19.1666H0ZM15.4166 18.3333H17.9166C18.3769 18.3333 18.7499 17.9602 18.7499 17.5001V6.25002C18.7499 5.78982 18.3769 5.41668 17.9166 5.41668H15.4166C14.9565 5.41668 14.5833 5.78982 14.5833 6.25002V17.5001C14.5833 17.9602 14.9565 18.3333 15.4166 18.3333ZM15.4166 6.25002H17.9166V7.50014H15.4166V6.25002ZM15.4166 8.33348H17.9166V17.5001H15.4166V8.33348ZM12.0833 11.2501C12.0833 10.7898 11.7101 10.4168 11.25 10.4168H8.75C8.2897 10.4168 7.9166 10.7898 7.9166 11.2501V17.5001C7.9166 17.9602 8.2897 18.3333 8.75 18.3333H11.25C11.7101 18.3333 12.0833 17.9602 12.0833 17.5001V11.2501ZM11.25 17.5001H8.75V13.3333H11.25V17.5001ZM11.25 12.5001H8.75V11.2501H11.25V12.5001ZM5.41662 10.0001C5.41662 9.5399 5.04352 9.16682 4.58322 9.16682H2.08324C1.62304 9.16682 1.24994 9.5399 1.24994 10.0001V17.5001C1.24994 17.9602 1.62304 18.3333 2.08324 18.3333H4.58322C5.04352 18.3333 5.41662 17.9602 5.41662 17.5001V10.0001ZM4.58322 17.5001H2.08324V12.0832H4.58322V17.5001ZM4.58322 11.2501H2.08324V10.0001H4.58322V11.2501Z" fill="#F55661"/>
</svg>
