<svg width="22" height="20" viewBox="0 0 22 20" fill="none" xmlns="http://www.w3.org/2000/svg">
<path fill-rule="evenodd" clip-rule="evenodd" d="M20.8725 12.763H19.7345V1.735H20.8725C21.3402 1.71912 21.7111 1.33542 21.7111 0.8675C21.7111 0.399583 21.3402 0.0158799 20.8725 0H0.838542C0.370895 0.0158799 0 0.399583 0 0.8675C0 1.33542 0.370895 1.71912 0.838542 1.735H1.97854V12.763H0.838542C0.370895 12.7789 0 13.1626 0 13.6305C0 14.0984 0.370895 14.4821 0.838542 14.498H7.89554C7.87754 14.513 7.85854 14.525 7.84154 14.542L4.12254 18.273C3.78921 18.6145 3.78921 19.1595 4.12254 19.501C4.28199 19.6633 4.49999 19.7548 4.72754 19.7548C4.95509 19.7548 5.1731 19.6633 5.33254 19.501L9.05054 15.77C9.38592 15.4298 9.38814 14.884 9.05554 14.541C9.03754 14.523 9.01654 14.509 8.99754 14.493H12.7245C12.7045 14.51 12.6835 14.524 12.6655 14.543C12.3328 14.8847 12.335 15.43 12.6705 15.769L16.3895 19.501C16.5497 19.6629 16.7683 19.7535 16.996 19.7522C17.2237 19.7508 17.4413 19.6578 17.5995 19.494C17.931 19.1516 17.9283 18.6072 17.5935 18.268L13.8765 14.537C13.8595 14.52 13.8405 14.508 13.8235 14.493H20.8775C21.3273 14.4542 21.6723 14.0771 21.671 13.6257C21.6697 13.1743 21.3225 12.7992 20.8725 12.763ZM18.0225 1.735V12.763H3.69054V1.735H18.0225Z" fill="#495059"/>
<path fill-rule="evenodd" clip-rule="evenodd" d="M6.48954 9.381L9.21654 6.912L11.9975 9.612C12.1801 9.78874 12.4244 9.88739 12.6785 9.887H12.7435C12.9943 9.86994 13.229 9.7576 13.3995 9.573L15.4885 7.295C15.6521 7.40277 15.8437 7.46014 16.0395 7.46C16.5749 7.45614 17.0059 7.01933 17.0025 6.484L16.9895 5.278C16.9846 5.01059 16.8691 4.75717 16.6705 4.578C16.4681 4.39903 16.2019 4.30957 15.9325 4.33L14.7175 4.43C14.4602 4.45087 14.2217 4.57318 14.0545 4.77C13.7516 5.12357 13.7478 5.64404 14.0455 6.002L12.6375 7.537L9.92054 4.901C9.54967 4.54249 8.96451 4.53244 8.58154 4.878L5.17554 7.958C4.98536 8.13001 4.87182 8.3709 4.86018 8.62707C4.84853 8.88324 4.93975 9.13344 5.11354 9.322C5.47947 9.71339 6.09145 9.73963 6.48954 9.381Z" fill="#DF535D"/>
</svg>
